#tb 0: 1/44100
#media_type 0: audio
#codec_id 0: pcm_s16le
#sample_rate 0: 44100
#channel_layout 0: 4
#channel_layout_name 0: mono
0,          0,          0,     8192,    16384, 0x00000000
0,       8192,       8192,     8192,    16384, 0x00000000
0,      16384,      16384,     8192,    16384, 0x00000000
0,      24576,      24576,     8192,    16384, 0x00000000
0,      32768,      32768,     8192,    16384, 0x00000000
0,      40960,      40960,     8192,    16384, 0xec1f743b
0,      49152,      49152,     8192,    16384, 0x6f17c2c1
0,      57344,      57344,     8192,    16384, 0x6f17c2c1
0,      65536,      65536,     8192,    16384, 0x6f17c2c1
0,      73728,      73728,     8192,    16384, 0x6f17c2c1
0,      81920,      81920,     6281,    12562, 0x1db69e8a
0,      88201,      88201,     3824,     7648, 0xa34b4b6a
0,      92025,      92025,     8192,    16384, 0x6f17c2c1
0,     100217,     100217,     8192,    16384, 0x6f17c2c1
0,     108409,     108409,     8192,    16384, 0x6f17c2c1
0,     116601,     116601,     8192,    16384, 0x6f17c2c1
0,     124793,     124793,     7509,    15018, 0x104cc75b
0,     132302,     132302,     2596,     5192, 0x06872299
0,     134898,     134898,     8192,    16384, 0x6f17c2c1
0,     143090,     143090,     8192,    16384, 0x6f17c2c1
0,     151282,     151282,     8192,    16384, 0x6f17c2c1
0,     159474,     159474,     8192,    16384, 0x6f17c2c1
0,     167666,     167666,     8192,    16384, 0x6f17c2c1
0,     175858,     175858,     8192,    16384, 0x6f17c2c1
0,     184050,     184050,     8192,    16384, 0x6f17c2c1
0,     192242,     192242,     8192,    16384, 0x6f17c2c1
0,     200434,     200434,     8192,    16384, 0x6f17c2c1
0,     208626,     208626,     8192,    16384, 0x6f17c2c1
0,     216818,     216818,     3685,     7370, 0xd40a7bf1
